<mxfile host="Electron" modified="2023-07-10T13:35:03.729Z" agent="Mozilla/5.0 (Macintosh; Intel Mac OS X 10_15_7) AppleWebKit/537.36 (KHTML, like Gecko) draw.io/21.6.1 Chrome/112.0.5615.204 Electron/24.6.1 Safari/537.36" etag="-4MDyv81vyJwF7X4a-6U" version="21.6.1" type="device" pages="2">
  <diagram name="HTTP" id="DPbbf7-FrUrdWJRdAvNP">
    <mxGraphModel dx="1026" dy="743" grid="1" gridSize="10" guides="1" tooltips="1" connect="1" arrows="1" fold="1" page="1" pageScale="1" pageWidth="827" pageHeight="1169" math="0" shadow="0">
      <root>
        <mxCell id="0" />
        <mxCell id="1" parent="0" />
        <mxCell id="uVZGaLGRNMDtg4VJrvWM-1" value="&lt;b&gt;Web Server&lt;/b&gt;" style="rounded=0;whiteSpace=wrap;html=1;align=left;verticalAlign=top;" parent="1" vertex="1">
          <mxGeometry x="10" y="10" width="120" height="240" as="geometry" />
        </mxCell>
        <mxCell id="uVZGaLGRNMDtg4VJrvWM-22" value="req: GET /book/page&lt;br&gt;res:&amp;nbsp;res: text/html : &amp;lt;html&amp;gt;&amp;lt;form&amp;gt; ..." style="edgeStyle=orthogonalEdgeStyle;rounded=1;orthogonalLoop=1;jettySize=auto;html=1;entryX=0.75;entryY=1;entryDx=0;entryDy=0;align=left;startArrow=classic;startFill=1;" parent="1" target="uVZGaLGRNMDtg4VJrvWM-4" edge="1">
          <mxGeometry x="0.4286" relative="1" as="geometry">
            <mxPoint x="350" y="265" as="sourcePoint" />
            <Array as="points">
              <mxPoint x="120" y="265" />
            </Array>
            <mxPoint x="1" as="offset" />
          </mxGeometry>
        </mxCell>
        <mxCell id="uVZGaLGRNMDtg4VJrvWM-2" value="&lt;b&gt;Browser (Client)&lt;/b&gt;" style="rounded=0;whiteSpace=wrap;html=1;align=left;verticalAlign=top;" parent="1" vertex="1">
          <mxGeometry x="350" y="10" width="250" height="370" as="geometry" />
        </mxCell>
        <mxCell id="uVZGaLGRNMDtg4VJrvWM-20" style="edgeStyle=orthogonalEdgeStyle;rounded=0;orthogonalLoop=1;jettySize=auto;html=1;entryX=0;entryY=0.5;entryDx=0;entryDy=0;dashed=1;" parent="1" target="uVZGaLGRNMDtg4VJrvWM-10" edge="1">
          <mxGeometry relative="1" as="geometry">
            <mxPoint x="350" y="75" as="sourcePoint" />
          </mxGeometry>
        </mxCell>
        <mxCell id="uVZGaLGRNMDtg4VJrvWM-7" style="edgeStyle=orthogonalEdgeStyle;rounded=0;orthogonalLoop=1;jettySize=auto;html=1;startArrow=classic;startFill=1;exitX=1;exitY=0.5;exitDx=0;exitDy=0;" parent="1" source="uVZGaLGRNMDtg4VJrvWM-3" edge="1">
          <mxGeometry relative="1" as="geometry">
            <mxPoint x="350" y="75" as="targetPoint" />
          </mxGeometry>
        </mxCell>
        <mxCell id="uVZGaLGRNMDtg4VJrvWM-8" value="&lt;div style=&quot;border-color: var(--border-color); text-align: left;&quot;&gt;req: GET /static/image.jpg&lt;/div&gt;&lt;div style=&quot;border-color: var(--border-color); text-align: left;&quot;&gt;res: image/jpg : image.jpg&lt;/div&gt;" style="edgeLabel;html=1;align=center;verticalAlign=middle;resizable=0;points=[];" parent="uVZGaLGRNMDtg4VJrvWM-7" vertex="1" connectable="0">
          <mxGeometry x="0.1444" y="2" relative="1" as="geometry">
            <mxPoint x="-13" y="2" as="offset" />
          </mxGeometry>
        </mxCell>
        <mxCell id="uVZGaLGRNMDtg4VJrvWM-3" value="&lt;b&gt;Static files&lt;br&gt;&lt;/b&gt;&lt;br&gt;/static/image.jpg&lt;br&gt;/static/index.html" style="rounded=0;whiteSpace=wrap;html=1;align=left;verticalAlign=top;" parent="1" vertex="1">
          <mxGeometry x="30" y="40" width="120" height="70" as="geometry" />
        </mxCell>
        <mxCell id="uVZGaLGRNMDtg4VJrvWM-4" value="&lt;b&gt;Dynamic paths&lt;br&gt;&lt;/b&gt;&lt;br&gt;/api/resource&lt;br&gt;/book/page" style="rounded=0;whiteSpace=wrap;html=1;align=left;verticalAlign=top;" parent="1" vertex="1">
          <mxGeometry x="30" y="130" width="120" height="70" as="geometry" />
        </mxCell>
        <mxCell id="uVZGaLGRNMDtg4VJrvWM-10" value="Display image" style="rounded=0;whiteSpace=wrap;html=1;" parent="1" vertex="1">
          <mxGeometry x="380" y="50" width="120" height="50" as="geometry" />
        </mxCell>
        <mxCell id="uVZGaLGRNMDtg4VJrvWM-14" value="Render HTML page" style="rounded=0;whiteSpace=wrap;html=1;verticalAlign=top;align=center;" parent="1" vertex="1">
          <mxGeometry x="380" y="130" width="130" height="90" as="geometry" />
        </mxCell>
        <mxCell id="uVZGaLGRNMDtg4VJrvWM-16" value="process response&lt;br&gt;rewrite" style="edgeStyle=orthogonalEdgeStyle;rounded=1;orthogonalLoop=1;jettySize=auto;html=1;exitX=1;exitY=0.5;exitDx=0;exitDy=0;entryX=0.75;entryY=1;entryDx=0;entryDy=0;" parent="1" source="uVZGaLGRNMDtg4VJrvWM-15" target="uVZGaLGRNMDtg4VJrvWM-14" edge="1">
          <mxGeometry x="0.1294" relative="1" as="geometry">
            <mxPoint x="445" y="220" as="targetPoint" />
            <Array as="points">
              <mxPoint x="550" y="180" />
              <mxPoint x="550" y="240" />
              <mxPoint x="478" y="240" />
            </Array>
            <mxPoint as="offset" />
          </mxGeometry>
        </mxCell>
        <mxCell id="uVZGaLGRNMDtg4VJrvWM-17" value="" style="edgeStyle=orthogonalEdgeStyle;rounded=0;orthogonalLoop=1;jettySize=auto;html=1;exitX=0;exitY=0.5;exitDx=0;exitDy=0;entryX=1;entryY=0.75;entryDx=0;entryDy=0;align=left;startArrow=classic;startFill=1;" parent="1" source="uVZGaLGRNMDtg4VJrvWM-15" target="uVZGaLGRNMDtg4VJrvWM-4" edge="1">
          <mxGeometry x="-0.0019" relative="1" as="geometry">
            <Array as="points">
              <mxPoint x="272" y="180" />
              <mxPoint x="272" y="183" />
            </Array>
            <mxPoint as="offset" />
          </mxGeometry>
        </mxCell>
        <mxCell id="uVZGaLGRNMDtg4VJrvWM-18" value="req: GET /api/resource?par=test&lt;br style=&quot;border-color: var(--border-color);&quot;&gt;&lt;span style=&quot;&quot;&gt;res: application/json : { &quot;attr&quot;: ...&lt;/span&gt;" style="edgeLabel;html=1;align=left;verticalAlign=middle;resizable=0;points=[];" parent="uVZGaLGRNMDtg4VJrvWM-17" vertex="1" connectable="0">
          <mxGeometry x="0.1175" y="2" relative="1" as="geometry">
            <mxPoint x="-81" y="-4" as="offset" />
          </mxGeometry>
        </mxCell>
        <mxCell id="ADNCqRPEzDdMimbdqv9I-1" value="user triggered&lt;br&gt;local rewrite" style="edgeStyle=orthogonalEdgeStyle;rounded=1;orthogonalLoop=1;jettySize=auto;html=1;exitX=1;exitY=0.25;exitDx=0;exitDy=0;entryX=0.75;entryY=0;entryDx=0;entryDy=0;" parent="1" source="uVZGaLGRNMDtg4VJrvWM-15" target="uVZGaLGRNMDtg4VJrvWM-14" edge="1">
          <mxGeometry x="-0.1529" relative="1" as="geometry">
            <Array as="points">
              <mxPoint x="550" y="170" />
              <mxPoint x="550" y="110" />
              <mxPoint x="478" y="110" />
            </Array>
            <mxPoint as="offset" />
          </mxGeometry>
        </mxCell>
        <mxCell id="uVZGaLGRNMDtg4VJrvWM-15" value="JavaScript" style="rounded=0;whiteSpace=wrap;html=1;" parent="1" vertex="1">
          <mxGeometry x="400" y="160" width="90" height="40" as="geometry" />
        </mxCell>
        <mxCell id="uVZGaLGRNMDtg4VJrvWM-23" style="edgeStyle=orthogonalEdgeStyle;rounded=1;orthogonalLoop=1;jettySize=auto;html=1;exitX=0;exitY=0.25;exitDx=0;exitDy=0;entryX=-0.001;entryY=0.653;entryDx=0;entryDy=0;entryPerimeter=0;startArrow=classic;startFill=1;endArrow=none;endFill=0;dashed=1;" parent="1" source="uVZGaLGRNMDtg4VJrvWM-21" target="uVZGaLGRNMDtg4VJrvWM-2" edge="1">
          <mxGeometry relative="1" as="geometry">
            <Array as="points">
              <mxPoint x="370" y="300" />
              <mxPoint x="370" y="265" />
            </Array>
          </mxGeometry>
        </mxCell>
        <mxCell id="uVZGaLGRNMDtg4VJrvWM-24" value="req: POST /book/page : page=3; par=1&lt;br&gt;res: text/html : &amp;lt;html&amp;gt;&amp;lt;p&amp;gt; ..." style="edgeStyle=orthogonalEdgeStyle;rounded=1;orthogonalLoop=1;jettySize=auto;html=1;entryX=0.5;entryY=1;entryDx=0;entryDy=0;align=left;startArrow=classic;startFill=1;" parent="1" target="uVZGaLGRNMDtg4VJrvWM-4" edge="1">
          <mxGeometry x="0.3023" relative="1" as="geometry">
            <mxPoint x="350" y="320" as="sourcePoint" />
            <mxPoint as="offset" />
          </mxGeometry>
        </mxCell>
        <mxCell id="uVZGaLGRNMDtg4VJrvWM-21" value="Render HTML&lt;br&gt;page with a form&lt;br&gt;&lt;br&gt;Render response from POST on Submit" style="rounded=0;whiteSpace=wrap;html=1;" parent="1" vertex="1">
          <mxGeometry x="400" y="280" width="150" height="80" as="geometry" />
        </mxCell>
        <mxCell id="uVZGaLGRNMDtg4VJrvWM-25" style="edgeStyle=orthogonalEdgeStyle;rounded=0;orthogonalLoop=1;jettySize=auto;html=1;exitX=0;exitY=0.5;exitDx=0;exitDy=0;entryX=-0.004;entryY=0.838;entryDx=0;entryDy=0;entryPerimeter=0;startArrow=classic;startFill=1;endArrow=classic;endFill=1;dashed=1;" parent="1" source="uVZGaLGRNMDtg4VJrvWM-21" target="uVZGaLGRNMDtg4VJrvWM-2" edge="1">
          <mxGeometry relative="1" as="geometry">
            <mxPoint x="410" y="310" as="sourcePoint" />
            <mxPoint x="360" y="262" as="targetPoint" />
            <Array as="points">
              <mxPoint x="390" y="320" />
              <mxPoint x="390" y="320" />
            </Array>
          </mxGeometry>
        </mxCell>
        <mxCell id="uVZGaLGRNMDtg4VJrvWM-26" style="edgeStyle=orthogonalEdgeStyle;orthogonalLoop=1;jettySize=auto;html=1;startArrow=classic;startFill=1;exitX=1;exitY=0.75;exitDx=0;exitDy=0;entryX=0.001;entryY=0.374;entryDx=0;entryDy=0;entryPerimeter=0;rounded=1;" parent="1" source="uVZGaLGRNMDtg4VJrvWM-3" target="uVZGaLGRNMDtg4VJrvWM-2" edge="1">
          <mxGeometry relative="1" as="geometry">
            <mxPoint x="160" y="85" as="sourcePoint" />
            <mxPoint x="360" y="85" as="targetPoint" />
          </mxGeometry>
        </mxCell>
        <mxCell id="uVZGaLGRNMDtg4VJrvWM-27" value="&lt;div style=&quot;border-color: var(--border-color); text-align: left;&quot;&gt;req: GET /static/index.html&lt;/div&gt;&lt;div style=&quot;border-color: var(--border-color); text-align: left;&quot;&gt;res: text/html : &amp;lt;html&amp;gt; ...&lt;/div&gt;" style="edgeLabel;html=1;align=center;verticalAlign=middle;resizable=0;points=[];" parent="uVZGaLGRNMDtg4VJrvWM-26" vertex="1" connectable="0">
          <mxGeometry x="0.1444" y="2" relative="1" as="geometry">
            <mxPoint x="-2" y="-19" as="offset" />
          </mxGeometry>
        </mxCell>
        <mxCell id="uVZGaLGRNMDtg4VJrvWM-28" style="edgeStyle=orthogonalEdgeStyle;rounded=0;orthogonalLoop=1;jettySize=auto;html=1;entryX=0.005;entryY=0.196;entryDx=0;entryDy=0;dashed=1;exitX=0.001;exitY=0.374;exitDx=0;exitDy=0;exitPerimeter=0;entryPerimeter=0;" parent="1" source="uVZGaLGRNMDtg4VJrvWM-2" target="uVZGaLGRNMDtg4VJrvWM-14" edge="1">
          <mxGeometry relative="1" as="geometry">
            <mxPoint x="360" y="85" as="sourcePoint" />
            <mxPoint x="390" y="85" as="targetPoint" />
          </mxGeometry>
        </mxCell>
      </root>
    </mxGraphModel>
  </diagram>
  <diagram id="iG4Qbh9t4nX1V89IN7AH" name="TLS">
    <mxGraphModel dx="1026" dy="743" grid="1" gridSize="10" guides="1" tooltips="1" connect="1" arrows="1" fold="1" page="1" pageScale="1" pageWidth="827" pageHeight="1169" math="0" shadow="0">
      <root>
        <mxCell id="0" />
        <mxCell id="1" parent="0" />
        <mxCell id="9kMpoWr3iOa4FIncAm7i-3" value="TCP/IP&lt;br&gt;Connect ip_address:port" style="edgeStyle=orthogonalEdgeStyle;rounded=0;orthogonalLoop=1;jettySize=auto;html=1;exitX=1.033;exitY=0.1;exitDx=0;exitDy=0;entryX=-0.033;entryY=0.105;entryDx=0;entryDy=0;exitPerimeter=0;entryPerimeter=0;" parent="1" source="9kMpoWr3iOa4FIncAm7i-2" target="9kMpoWr3iOa4FIncAm7i-1" edge="1">
          <mxGeometry relative="1" as="geometry" />
        </mxCell>
        <mxCell id="9kMpoWr3iOa4FIncAm7i-4" value="TCP/IP Socket Connection" style="rounded=0;whiteSpace=wrap;html=1;verticalAlign=top;strokeColor=#666666;fillColor=#f5f5f5;fontColor=#333333;" parent="1" vertex="1">
          <mxGeometry x="220" y="50" width="180" height="60" as="geometry" />
        </mxCell>
        <mxCell id="9kMpoWr3iOa4FIncAm7i-5" value="Negotiate TLS Context" style="edgeStyle=orthogonalEdgeStyle;rounded=0;orthogonalLoop=1;jettySize=auto;html=1;exitX=0;exitY=0.75;exitDx=0;exitDy=0;entryX=1;entryY=0.75;entryDx=0;entryDy=0;startArrow=classic;startFill=1;" parent="1" source="9kMpoWr3iOa4FIncAm7i-4" target="9kMpoWr3iOa4FIncAm7i-4" edge="1">
          <mxGeometry relative="1" as="geometry">
            <Array as="points">
              <mxPoint x="310" y="95" />
              <mxPoint x="310" y="95" />
            </Array>
          </mxGeometry>
        </mxCell>
        <mxCell id="9kMpoWr3iOa4FIncAm7i-6" value="TCP/IP socket connection" style="rounded=0;whiteSpace=wrap;html=1;verticalAlign=top;strokeColor=#666666;fillColor=#f5f5f5;fontColor=#333333;" parent="1" vertex="1">
          <mxGeometry x="220" y="120" width="180" height="110" as="geometry" />
        </mxCell>
        <mxCell id="9kMpoWr3iOa4FIncAm7i-7" value="Shared TLS Encrypted Session" style="rounded=0;whiteSpace=wrap;html=1;verticalAlign=top;strokeColor=#82b366;fillColor=#d5e8d4;" parent="1" vertex="1">
          <mxGeometry x="220" y="150" width="180" height="70" as="geometry" />
        </mxCell>
        <mxCell id="9kMpoWr3iOa4FIncAm7i-8" value="HTTP Protocol&lt;br&gt;GET /password" style="edgeStyle=orthogonalEdgeStyle;rounded=0;orthogonalLoop=1;jettySize=auto;html=1;exitX=0;exitY=0.75;exitDx=0;exitDy=0;entryX=1;entryY=0.75;entryDx=0;entryDy=0;startArrow=classic;startFill=1;" parent="1" source="9kMpoWr3iOa4FIncAm7i-7" target="9kMpoWr3iOa4FIncAm7i-7" edge="1">
          <mxGeometry relative="1" as="geometry">
            <Array as="points">
              <mxPoint x="270" y="203" />
              <mxPoint x="270" y="203" />
            </Array>
          </mxGeometry>
        </mxCell>
        <mxCell id="h83E_b9F3LfNiQOzEGcC-1" value="" style="endArrow=none;html=1;rounded=0;strokeColor=#FFFFFF;" parent="1" edge="1">
          <mxGeometry width="50" height="50" relative="1" as="geometry">
            <mxPoint y="250" as="sourcePoint" />
            <mxPoint as="targetPoint" />
          </mxGeometry>
        </mxCell>
        <mxCell id="h83E_b9F3LfNiQOzEGcC-2" value="" style="endArrow=none;html=1;rounded=0;strokeColor=#FFFFFF;" parent="1" edge="1">
          <mxGeometry width="50" height="50" relative="1" as="geometry">
            <mxPoint x="620" y="250" as="sourcePoint" />
            <mxPoint x="620" as="targetPoint" />
          </mxGeometry>
        </mxCell>
        <mxCell id="9kMpoWr3iOa4FIncAm7i-1" value="Web Server" style="rounded=0;whiteSpace=wrap;html=1;" parent="1" vertex="1">
          <mxGeometry x="400" width="60" height="250" as="geometry" />
        </mxCell>
        <mxCell id="vZd36Fc2VTeQZ0nIjA1I-2" value="&lt;div style=&quot;text-align: left;&quot;&gt;&amp;lt; resolve: random.org&lt;/div&gt;&lt;div style=&quot;text-align: left;&quot;&gt;&amp;gt;&amp;nbsp;172.66.43.252&lt;/div&gt;" style="edgeStyle=orthogonalEdgeStyle;rounded=0;orthogonalLoop=1;jettySize=auto;html=1;exitX=0;exitY=0.08;exitDx=0;exitDy=0;entryX=0.5;entryY=0;entryDx=0;entryDy=0;exitPerimeter=0;startArrow=classic;startFill=1;" edge="1" parent="1" source="9kMpoWr3iOa4FIncAm7i-2" target="vZd36Fc2VTeQZ0nIjA1I-1">
          <mxGeometry relative="1" as="geometry">
            <Array as="points">
              <mxPoint x="70" y="20" />
            </Array>
          </mxGeometry>
        </mxCell>
        <mxCell id="9kMpoWr3iOa4FIncAm7i-2" value="Web Browser (Client)" style="rounded=0;whiteSpace=wrap;html=1;" parent="1" vertex="1">
          <mxGeometry x="160" width="60" height="250" as="geometry" />
        </mxCell>
        <mxCell id="vZd36Fc2VTeQZ0nIjA1I-1" value="DNS Server" style="rounded=0;whiteSpace=wrap;html=1;" vertex="1" parent="1">
          <mxGeometry x="40" y="70" width="60" height="60" as="geometry" />
        </mxCell>
      </root>
    </mxGraphModel>
  </diagram>
</mxfile>
